<svg width="45" height="43" viewBox="0 0 45 43" fill="none" xmlns="http://www.w3.org/2000/svg">
<path d="M44.3 38H42.5V13.4C42.5 11.7 41.1 10.3 39.4 10.3H36C35.6 10.3 35.3 10.6 35.3 11C35.3 11.4 35.6 11.7 36 11.7H39.4C40.3 11.7 41.1 12.5 41.1 13.4V38H4V13.4C4 12.5 4.8 11.7 5.7 11.7H22.5C22.9 11.7 23.2 11.4 23.2 11C23.2 10.6 22.9 10.3 22.5 10.3H5.7C4 10.3 2.6 11.7 2.6 13.4V38H0.7C0.3 38 0 38.3 0 38.7C0 40.8 1.7 42.6 3.9 42.6H41.1C43.2 42.6 45 40.9 45 38.7C45 38.3 44.7 38 44.3 38ZM41.1 41.2H3.9C2.8 41.2 1.8 40.5 1.5 39.4H43.5C43.2 40.4 42.2 41.2 41.1 41.2ZM29.1 12.2C29.4 12.4 29.8 12.5 30.2 12.5C30.4 12.5 30.6 12.5 30.8 12.4C31.4 12.2 31.8 11.9 32.1 11.4C32.4 10.9 32.5 10.3 32.3 9.69999C32.2 9.09999 31.8 8.69999 31.3 8.39999C30.8 8.09999 30.2 7.99999 29.6 8.19999C29 8.39999 28.6 8.69999 28.3 9.19999C27.8 10.2 28.1 11.6 29.1 12.2ZM29.6 9.89999C29.7 9.69999 29.9 9.59999 30.1 9.49999C30.2 9.49999 30.2 9.49999 30.3 9.49999C30.4 9.49999 30.6 9.49999 30.7 9.59999C30.9 9.7 31 9.89999 31 10.1C31.1 10.3 31 10.5 30.9 10.7C30.8 10.9 30.6 11 30.4 11.1C30.2 11.2 30 11.1 29.8 11C29.5 10.8 29.4 10.3 29.6 9.89999ZM26.7 16.4C27 16.6 27.4 16.7 27.8 16.7C28 16.7 28.2 16.7 28.4 16.6C29 16.4 29.4 16.1 29.7 15.6C30 15.1 30.1 14.5 29.9 13.9C29.8 13.3 29.4 12.9 28.9 12.6C28.4 12.3 27.8 12.2 27.2 12.4C26.6 12.6 26.2 12.9 25.9 13.4C25.3 14.5 25.6 15.8 26.7 16.4ZM27.1 14.2C27.2 14 27.4 13.9 27.6 13.8C27.7 13.8 27.7 13.8 27.8 13.8C27.9 13.8 28.1 13.8 28.2 13.9C28.4 14 28.5 14.2 28.5 14.4C28.6 14.6 28.5 14.8 28.4 15C28.3 15.2 28.1 15.3 27.9 15.4C27.7 15.5 27.5 15.4 27.3 15.3C27 15 26.9 14.5 27.1 14.2ZM24.2 20.7C24.5 20.9 24.9 21 25.3 21C25.5 21 25.7 21 25.9 20.9C26.5 20.7 26.9 20.4 27.2 19.9C27.8 18.9 27.5 17.5 26.4 16.9C25.9 16.6 25.3 16.5 24.7 16.7C24.1 16.9 23.7 17.2 23.4 17.7C23.1 18.2 23 18.8 23.2 19.4C23.3 19.9 23.7 20.4 24.2 20.7ZM24.6 18.4C24.7 18.2 24.9 18.1 25.1 18C25.2 18 25.2 18 25.3 18C25.4 18 25.6 18 25.7 18.1C26.1 18.3 26.2 18.8 26 19.2C25.9 19.4 25.7 19.5 25.5 19.6C25.3 19.7 25.1 19.6 24.9 19.5C24.7 19.4 24.6 19.2 24.6 19C24.5 18.8 24.5 18.6 24.6 18.4ZM14.3 21.9C13.3 23.1 12.6 24.3 12.1 25C11.1 26.5 11.2 26.6 11.2 26.8C11.2 27.2 11.5 27.5 11.9 27.5H12C12.3 27.5 14.4 27.3 16 27.2C17.3 27.1 17.9 27.1 18.3 27L21.6 28.9C21.7 29.2 22 29.8 22.6 31C23.3 32.4 24.2 34.3 24.3 34.6C24.3 34.6 24.3 34.7 24.4 34.7C24.5 34.9 24.8 35 25 35C25.1 35 25.2 35 25.3 34.9C25.5 34.8 25.6 34.8 26.4 33.2C26.8 32.4 27.5 31.2 28.1 29.7C29.5 26.2 30 23.4 29.4 21.5C31.3 18.5 33.9 14.3 35.3 8.29999C35.3 8.19999 35.3 8.09999 35.4 8.09999C35.7 7.09999 36 5.49999 36.3 3.69999C36.4 2.89999 36.6 2.19999 36.6 1.59999V1.49999C36.7 0.599994 36.8 0.299994 36.4 0.0999939C36 -6.10203e-06 35.8 -6.10203e-06 35.6 0.0999939C35.4 0.199994 35.1 0.399994 34.8 0.699994C34.4 0.999994 33.8 1.49999 33.2 1.99999C31.7 3.19999 30.4 4.39999 29.7 5.09999C25.1 9.29999 22.7 13.5 21 16.7C18.9 17.2 16.7 18.9 14.3 21.9ZM19 20.8C19 20.9 18.9 21 18.9 21.1C18.9 21.2 18.8 21.3 18.8 21.4C18.8 21.5 18.7 21.6 18.7 21.7C18.7 21.8 18.7 21.8 18.6 21.9C18.5 22.2 18.4 22.5 18.3 22.7V22.8C18.2 23.1 18.2 23.3 18.1 23.6C18.1 23.7 18.1 23.7 18.1 23.8C18.1 23.9 18.1 23.9 18.1 24C18.1 24.1 18.1 24.2 18 24.3C18 24.3 18 24.3 18 24.4C18 24.5 18 24.6 17.9 24.7C17.9 24.7 17.9 24.7 17.9 24.8C17.8 25.3 17.8 25.6 17.7 26C17.2 26 16.5 26.1 15.8 26.1C14.7 26.2 13.8 26.2 13.1 26.3C14.3 24.3 17.1 20.4 19.8 18.9C19.5 19.5 19.3 20.1 19.1 20.6C19.1 20.6 19.1 20.7 19 20.7C19.1 20.5 19.1 20.6 19 20.8ZM24.9 32.9C24.6 32.3 24.2 31.4 23.7 30.4C23.4 29.8 23.1 29.1 22.9 28.7C23.9 27.9 25.9 26.3 28 23.4C28.1 26.5 26.1 30.8 24.9 32.9ZM34.9 2.39999C34.6 3.79999 34.2 5.89999 33.9 7.49999L31 5.69999C32.2 4.69999 33.8 3.29999 34.9 2.39999ZM22 17.6C22 17.5 22.1 17.5 22.1 17.4C23.8 14.3 25.8 10.5 29.9 6.69999L33.6 8.89999C32.2 14.3 29.9 18 28 21C27.9 21.1 27.9 21.2 27.8 21.2C27.6 21.5 27.5 21.7 27.3 22C27.3 22 27.3 22.1 27.2 22.1C25 25.3 22.9 27 22 27.7L19.1 26C19.1 25.6 19.2 25.1 19.4 24.5V24.4C19.4 24.4 19.4 24.4 19.4 24.3C19.4 24.2 19.4 24.2 19.4 24.1C19.4 24 19.4 23.9 19.5 23.9C19.5 23.8 19.5 23.7 19.6 23.7C19.8 23.1 20 22.4 20.3 21.6C20.3 21.6 20.3 21.5 20.4 21.5C20.4 21.5 20.4 21.4 20.5 21.4C20.5 21.3 20.6 21.2 20.6 21.2C20.6 21.2 20.6 21.2 20.6 21.1C20.9 19.8 21.4 18.8 22 17.6C21.9 17.7 22 17.7 22 17.6ZM16.5 33.2C16.6 33.3 16.7 33.3 16.9 33.3C17.1 33.3 17.4 33.2 17.5 32.9L19.2 30C19.4 29.7 19.3 29.2 18.9 29C18.6 28.8 18.1 28.9 17.9 29.3L16.2 32.2C16.1 32.6 16.2 33 16.5 33.2ZM17.3 28.8C17.1 28.5 16.6 28.4 16.3 28.6L14 30.2C13.7 30.4 13.6 30.9 13.8 31.2C13.9 31.4 14.2 31.5 14.4 31.5C14.5 31.5 14.7 31.5 14.8 31.4L17.1 29.8C17.5 29.5 17.6 29.1 17.3 28.8ZM19.7 34.6C20.1 34.6 20.4 34.3 20.5 34L20.8 31.2C20.8 30.8 20.6 30.5 20.2 30.4C19.8 30.4 19.5 30.7 19.4 31L19 33.8C19 34.2 19.3 34.6 19.7 34.6Z" fill="white"/>
</svg>
