<svg width="66" height="74" viewBox="0 0 66 74" fill="none" xmlns="http://www.w3.org/2000/svg">
<path d="M57.8 14.2C57.8 14.1 57.8 14 57.7 13.9C57.6 13.7 57.3 13.6 57.1 13.5C56.8 13.5 51.5 13.4 51.5 13.4C51.5 13.4 51 13 50.2 12.2C49.9 11.9 49.5 11.5 49.2 11.2C49 11 48.8 10.8 48.5 10.6C48.3 10.4 48.1 10.2 47.9 10C47.7 9.8 47.6 9.7 47.4 9.5C47.2 9.3 47 9.2 46.9 9C46.8 8.9 46.7 8.8 46.7 8.8C46.6 8.7 46.5 8.6 46.4 8.6H46.3H46.2C45.8 8.5 45.4 8.6 45.2 8.7C45.2 8.7 44.4 9 43 9.4C42.8 8.6 42.4 7.7 41.9 6.8C40.3 3.8 38 2.2 35.2 2.2C35 2.2 34.8 2.2 34.6 2.2C34.5 2.1 34.4 2 34.3 1.9C33.1 0.6 31.5 0 29.6 0C26 0.1 22.4 2.7 19.4 7.3C17.3 10.5 15.8 14.6 15.3 17.7C11.1 19 8.2 19.9 8.2 19.9C6 20.6 6 20.6 5.7 22.6C5.5 24.1 0 66.1 0 66.1L46 74L57.7 71.1L66 69.1C66 69.1 57.9 14.6 57.8 14.2ZM34.5 11.8C32.1 12.5 29.5 13.3 26.8 14.2C27.5 11.4 29 8.6 30.7 6.7C31.3 6 32.2 5.3 33.3 4.8C34.3 6.9 34.5 9.9 34.5 11.8ZM29.6 2.4C30.5 2.4 31.2 2.6 31.8 3C30.8 3.5 29.9 4.2 29 5.2C26.7 7.6 24.9 11.4 24.2 15.1C22 15.8 19.9 16.4 17.9 17C19.1 11.2 24 2.5 29.6 2.4ZM22.5 35.2C22.7 39 32.9 39.9 33.5 48.9C34 56 29.7 60.8 23.6 61.2C16.3 61.7 12.2 57.4 12.2 57.4L13.8 50.9C13.8 50.9 17.9 53.9 21.1 53.7C23.2 53.6 24 51.9 23.9 50.6C23.6 45.6 15.3 45.9 14.7 37.7C14.3 30.8 18.9 23.8 29 23.1C32.9 22.9 34.9 23.8 34.9 23.8L32.6 32.4C32.6 32.4 30 31.2 27 31.4C22.5 31.7 22.5 34.5 22.5 35.2ZM36.9 11.1C36.9 9.3 36.7 6.8 35.8 4.6C38.5 5.1 39.9 8.2 40.5 10C39.4 10.3 38.2 10.7 36.9 11.1Z" fill="white"/>
</svg>
