<svg width="45" height="45" viewBox="0 0 45 45" fill="none" xmlns="http://www.w3.org/2000/svg">
<path d="M43.4001 18.8L40.2001 17.7L39.0001 14.4L40.7001 11.5C41.0001 11 41.0001 10.3 40.6001 9.80003L37.7001 6.30003C37.3001 5.80003 36.6001 5.60003 36.0001 5.90003L32.9001 7.10003L29.8001 5.30003L29.3001 2.00003C29.2001 1.40003 28.7001 0.900029 28.1001 0.800029L23.6001 2.91411e-05C23.0001 -0.0999709 22.4001 0.200029 22.0001 0.800029L20.4001 3.70003L16.9001 4.30003L14.4001 2.10003C13.9001 1.70003 13.2001 1.60003 12.7001 1.90003L8.80005 4.20003C8.20005 4.50003 8.00005 5.20003 8.10005 5.80003L8.70005 9.10003L6.40005 11.8L3.10005 11.7C2.50005 11.7 1.90005 12.1 1.70005 12.7L0.200054 16.9C5.37708e-05 17.5 0.200054 18.2 0.700054 18.6L3.30005 20.7V24.2L0.700054 26.3C0.200054 26.7 5.37708e-05 27.4 0.200054 28L1.70005 32.2C1.90005 32.8 2.50005 33.2 3.10005 33.2L6.40005 33.1L8.70005 35.8L8.10005 39.1C8.00005 39.7 8.30005 40.4 8.80005 40.7L12.7001 43C13.3001 43.3 14.0001 43.3 14.4001 42.8L16.9001 40.6L20.4001 41.2L22.0001 44.1C22.3001 44.6 22.8001 44.9 23.3001 44.9C23.4001 44.9 23.5001 44.9 23.6001 44.9L28.1001 44.1C28.7001 44 29.2001 43.5 29.3001 42.9L29.8001 39.6L32.9001 37.8L36.0001 39C36.6001 39.2 37.3001 39.1 37.7001 38.6L40.6001 35.1C41.0001 34.6 41.1001 33.9 40.7001 33.4L39.0001 30.5L40.2001 27.2L43.4001 26.1C44.0001 25.9 44.4001 25.3 44.4001 24.7V20.2C44.4001 19.6 44.0001 19 43.4001 18.8ZM43.0001 24.7C43.0001 24.7 42.9001 24.8 43.0001 24.7L39.4001 26C39.2001 26.1 39.0001 26.2 39.0001 26.4L37.6001 30.4C37.5001 30.6 37.5001 30.8 37.7001 31L39.6001 34.1V34.2L36.7001 37.7H36.6001L33.2001 36.4C33.0001 36.3 32.8001 36.3 32.6001 36.4L28.9001 38.5C28.7001 38.6 28.6001 38.8 28.6001 39L28.0001 42.6C28.0001 42.6 28.0001 42.7 27.9001 42.7L23.4001 43.5H23.3001L21.5001 40.3C21.4001 40.1 21.2001 40 21.0001 39.9L16.8001 39.2H16.7001C16.5001 39.2 16.4001 39.3 16.2001 39.4L13.4001 41.8H13.3001L9.40005 39.5C9.40005 39.5 9.40005 39.5 9.40005 39.4L10.1001 35.8C10.1001 35.6 10.1001 35.4 9.90005 35.2L7.30005 32C7.20005 31.8 7.00005 31.7 6.70005 31.7L3.00005 31.8H2.90005L1.40005 27.6V27.5L4.30005 25.2C4.50005 25.1 4.60005 24.9 4.60005 24.6V20.4C4.60005 20.2 4.50005 20 4.30005 19.8L1.40005 17.5V17.4L3.00005 13.2C3.00005 13.2 3.00005 13.2 3.10005 13.2L6.80005 13.3C7.00005 13.3 7.20005 13.2 7.40005 13L10.0001 9.70003C10.1001 9.50003 10.2001 9.30003 10.2001 9.10003L9.50005 5.50003V5.40003L13.4001 3.10003H13.5001L16.3001 5.50003C16.5001 5.60003 16.7001 5.70003 16.9001 5.70003L21.0001 5.00003C21.2001 5.00003 21.4001 4.80003 21.5001 4.60003L23.3001 1.40003C23.3001 1.40003 23.3001 1.40003 23.4001 1.40003L27.9001 2.20003C27.9001 2.20003 28.0001 2.20003 28.0001 2.30003L28.6001 5.90003C28.6001 6.10003 28.8001 6.30003 28.9001 6.40003L32.6001 8.50003C32.8001 8.60003 33.0001 8.60003 33.2001 8.50003L36.6001 7.20003H36.7001L39.6001 10.7V10.8L37.7001 13.9C37.6001 14.1 37.6001 14.3 37.6001 14.5L39.0001 18.5C39.1001 18.7 39.2001 18.9 39.4001 18.9L42.9001 20.1C42.9001 20.1 43.0001 20.1 43.0001 20.2V24.7ZM22.0001 7.80003C13.9001 7.80003 7.30005 14.4 7.30005 22.5C7.30005 30.6 13.9001 37.2 22.0001 37.2C30.1001 37.2 36.7001 30.6 36.7001 22.5C36.7001 14.4 30.1001 7.80003 22.0001 7.80003ZM11.2001 30.2L17.2001 24.2C17.4001 24 17.5001 23.7 17.4001 23.4C17.3001 23.1 17.2001 22.8 17.1001 22.5C17.1001 22.4 17.1001 22.4 17.0001 22.3C16.6001 20.4 16.9001 18.4 18.1001 16.8C19.4001 15 21.4001 13.9 23.6001 13.9L20.2001 17.3C20.0001 17.5 20.0001 17.7 20.0001 18L21.0001 23C21.1001 23.3 21.3001 23.5 21.5001 23.5L26.4001 24.6C26.6001 24.7 26.9001 24.6 27.1001 24.4L30.5001 21C30.5001 22.8 29.7001 24.4 28.5001 25.7C26.8001 27.4 24.4001 28.1 22.0001 27.5H21.9001C21.6001 27.4 21.3001 27.3 21.0001 27.2C20.7001 27.1 20.4001 27.2 20.2001 27.4L14.2001 33.4C13.1001 32.5 12.0001 31.4 11.2001 30.2ZM22.0001 35.7C19.7001 35.7 17.5001 35.1 15.6001 34.1L21.0001 28.7C21.2001 28.8 21.4001 28.8 21.6001 28.9H21.7001C24.5001 29.6 27.6001 28.8 29.6001 26.7C31.3001 25 32.2001 22.7 32.0001 20.3C32.0001 19.8 31.7001 19.4 31.2001 19.3C30.7001 19.2 30.3001 19.2 30.0001 19.6L26.4001 23.2L22.3001 22.3L21.4001 18.2L25.0001 14.6C25.3001 14.3 25.4001 13.8 25.3001 13.4C25.1001 13 24.7001 12.7 24.3001 12.6C21.4001 12.4 18.7001 13.7 16.9001 16.1C15.5001 18 15.1001 20.6 15.7001 22.9C15.7001 23 15.7001 23 15.8001 23.1C15.8001 23.3 15.9001 23.4 16.0001 23.6L10.4001 29C9.30005 27.1 8.70005 24.8 8.70005 22.4C8.70005 15.1 14.7001 9.10003 22.0001 9.10003C29.3001 9.10003 35.3001 15.1 35.3001 22.4C35.3001 29.8 29.3001 35.7 22.0001 35.7Z" fill="white"/>
</svg>
