<svg width="72" height="72" viewBox="0 0 72 72" fill="none" xmlns="http://www.w3.org/2000/svg">
<path d="M5.1 36C5.1 48.2 12.2 58.8 22.5 63.8L7.8 23.4C6.1 27.3 5.1 31.5 5.1 36ZM56.8 34.4C56.8 30.6 55.4 27.9 54.3 25.9C52.7 23.4 51.3 21.2 51.3 18.7C51.3 15.9 53.5 13.2 56.5 13.2C56.6 13.2 56.8 13.2 56.9 13.2C51.4 8.2 44 5.1 36 5.1C25.2 5.1 15.7 10.6 10.2 19C10.9 19 11.6 19 12.2 19C15.4 19 20.4 18.6 20.4 18.6C22.1 18.5 22.3 20.9 20.6 21.1C20.6 21.1 18.9 21.3 17.1 21.4L28.3 55L35.1 34.7L30.3 21.5C28.6 21.4 27.1 21.2 27.1 21.2C25.4 21.1 25.6 18.6 27.3 18.7C27.3 18.7 32.4 19.1 35.4 19.1C38.6 19.1 43.6 18.7 43.6 18.7C45.3 18.6 45.5 21 43.8 21.2C43.8 21.2 42.1 21.4 40.3 21.5L51.5 54.7L54.6 44.4C55.8 40.1 56.8 37.1 56.8 34.4ZM36.5 38.7L27.2 65.6C30 66.4 32.9 66.9 35.9 66.9C39.5 66.9 42.9 66.3 46.2 65.2C46.1 65.1 46 64.9 46 64.8L36.5 38.7ZM63.1 21.2C63.2 22.2 63.3 23.2 63.3 24.4C63.3 27.5 62.7 31.1 61 35.5L51.6 62.8C60.8 57.4 67 47.5 67 36.1C66.9 30.6 65.5 25.6 63.1 21.2ZM36 0C16.1 0 0 16.1 0 36C0 55.9 16.1 72 36 72C55.8 72 72 55.9 72 36C72 16.1 55.8 0 36 0ZM36 70.3C17.1 70.3 1.7 54.9 1.7 36C1.7 17.1 17.1 1.7 36 1.7C54.9 1.7 70.3 17.1 70.3 36C70.3 54.9 54.9 70.3 36 70.3Z" fill="white"/>
</svg>
