<svg width="182" height="68" viewBox="0 0 182 68" fill="none" xmlns="http://www.w3.org/2000/svg">
<path d="M6.71801 61.8031C6.23354 61.6417 5.65218 61.4481 4.90932 61.2867C4.19877 61.1254 3.682 60.964 3.32672 60.8026C2.97144 60.6413 2.80995 60.3831 2.80995 60.0604C2.80995 59.7376 2.97144 59.4472 3.26212 59.2535C3.5528 59.0599 4.03728 58.9631 4.65094 58.9631C5.55528 58.9631 6.42733 59.2213 7.33168 59.7376L8.00994 58.0271C7.55776 57.7367 7.041 57.543 6.45963 57.3817C5.87826 57.2203 5.2646 57.1558 4.65094 57.1558C3.77889 57.1558 3.00374 57.2849 2.39007 57.543C1.77641 57.8012 1.32424 58.1885 1.00126 58.6403C0.710575 59.0922 0.549085 59.6085 0.549085 60.1572C0.549085 60.8026 0.710575 61.319 1.06585 61.7063C1.38883 62.0936 1.80871 62.384 2.29318 62.5454C2.77765 62.7068 3.35902 62.9004 4.10187 63.0618C4.58634 63.1586 4.97392 63.2877 5.2323 63.3522C5.52299 63.4491 5.74907 63.5781 5.91056 63.7072C6.10435 63.8686 6.16895 64.0622 6.16895 64.2882C6.16895 64.6109 6.00746 64.8691 5.71677 65.0304C5.42609 65.2241 4.94162 65.3209 4.29566 65.3209C3.71429 65.3209 3.16523 65.2241 2.58386 65.0304C2.0025 64.8368 1.51803 64.6109 1.09815 64.2882L0.322998 65.9664C0.742873 66.2891 1.32424 66.5796 2.0348 66.7732C2.74535 66.9668 3.48821 67.0959 4.26336 67.0959C5.13541 67.0959 5.91056 66.9668 6.52423 66.7087C7.13789 66.4505 7.62236 66.0632 7.91304 65.6114C8.23602 65.1595 8.36522 64.6432 8.36522 64.0945C8.36522 63.4491 8.20373 62.9327 7.84845 62.5454C7.62236 62.2549 7.20249 61.9968 6.71801 61.8031Z" fill="white"/>
<path d="M33.7839 59.157H36.8845V67.0316H39.1131V59.157H42.2137V57.3174H33.7839V59.157Z" fill="white"/>
<path d="M74.8024 62.6747C74.8024 63.5784 74.6086 64.2239 74.2533 64.6434C73.898 65.063 73.3489 65.2889 72.6384 65.2889C71.185 65.2889 70.4744 64.4175 70.4744 62.6747V57.3174H68.2458V62.7393C68.2458 64.1593 68.6334 65.2566 69.4086 66.0312C70.1837 66.8057 71.2496 67.193 72.6384 67.193C74.0272 67.193 75.093 66.8057 75.8682 66.0312C76.6433 65.2566 77.0309 64.1593 77.0309 62.7393V57.3174H74.8024V62.6747Z" fill="white"/>
<path d="M111.299 57.9306C110.492 57.5433 109.555 57.3174 108.521 57.3174H104.129V66.9994H108.521C109.587 66.9994 110.492 66.8057 111.299 66.3862C112.107 65.9989 112.72 65.418 113.172 64.6757C113.625 63.9334 113.851 63.0943 113.851 62.1261C113.851 61.1579 113.625 60.3188 113.172 59.5765C112.752 58.8988 112.107 58.3179 111.299 57.9306ZM110.718 64.353C110.136 64.9016 109.361 65.1598 108.392 65.1598H106.357V59.157H108.392C109.361 59.157 110.136 59.4151 110.718 59.9638C111.299 60.5124 111.59 61.2225 111.59 62.1584C111.59 63.0943 111.299 63.8366 110.718 64.353Z" fill="white"/>
<path d="M142.66 57.3174H140.432V66.9994H142.66V57.3174Z" fill="white"/>
<path d="M177.252 57.8012C176.444 57.3817 175.54 57.1558 174.539 57.1558C173.538 57.1558 172.633 57.3817 171.826 57.8012C171.018 58.2208 170.372 58.834 169.92 59.6085C169.468 60.3831 169.242 61.2222 169.242 62.1904C169.242 63.1263 169.468 63.9977 169.92 64.7723C170.372 65.5468 171.018 66.1278 171.826 66.5796C172.633 66.9991 173.538 67.225 174.539 67.225C175.54 67.225 176.444 66.9991 177.252 66.5796C178.059 66.16 178.673 65.5468 179.157 64.7723C179.61 63.9977 179.836 63.1586 179.836 62.1904C179.836 61.2545 179.61 60.3831 179.157 59.6085C178.705 58.834 178.059 58.2531 177.252 57.8012ZM177.187 63.7718C176.929 64.2559 176.574 64.6109 176.089 64.8691C175.637 65.1273 175.12 65.2564 174.539 65.2564C173.957 65.2564 173.441 65.1273 172.989 64.8691C172.536 64.6109 172.149 64.2236 171.89 63.7718C171.632 63.2877 171.503 62.7713 171.503 62.1581C171.503 61.5449 171.632 61.0286 171.89 60.5445C172.149 60.0604 172.504 59.7054 172.989 59.4472C173.441 59.189 173.957 59.0599 174.539 59.0599C175.12 59.0599 175.637 59.189 176.089 59.4472C176.541 59.7054 176.929 60.0926 177.187 60.5445C177.446 61.0286 177.575 61.5449 177.575 62.1581C177.575 62.7713 177.446 63.32 177.187 63.7718Z" fill="white"/>
<path d="M49.2547 0H41.5355H33.7839V27.8519V39.1475H41.5355V27.8519H49.2547C56.9416 27.8519 63.1752 21.6231 63.1752 13.9421C63.2075 6.22875 56.9739 0 49.2547 0ZM49.2547 20.1063H41.5355V7.71332H49.2547C52.6783 7.71332 55.4559 10.4888 55.4559 13.9098C55.4559 17.3308 52.6783 20.1063 49.2547 20.1063Z" fill="white"/>
<path d="M177.446 18.1376C178.641 16.298 179.351 14.1034 179.351 11.7152C179.383 5.26054 174.119 0 167.627 0H152.608V15.6848V23.4304V39.1152H170.275C176.767 39.1152 182 33.8547 182 27.4C182.032 23.624 180.223 20.2676 177.446 18.1376ZM160.36 7.71331H167.627C169.823 7.71331 171.632 9.52062 171.632 11.7152C171.632 13.813 169.985 15.5234 167.918 15.6848H160.328V7.71331H160.36ZM170.308 31.4342H160.36V23.4304H167.627C167.821 23.4304 168.047 23.3981 168.241 23.3981H170.308C172.504 23.3981 174.313 25.2054 174.313 27.4C174.313 29.6269 172.504 31.4342 170.308 31.4342Z" fill="white"/>
<path d="M68.8918 0L76.8695 39.1475H84.621L76.6434 0H68.8918Z" fill="white"/>
<path d="M100.931 0L96.7973 20.2354L92.6632 0H84.9116L92.8892 39.1475H92.9538H100.673H100.705L108.683 0H100.931Z" fill="white"/>
<path d="M117.016 0V7.74559V15.6848V23.4304V31.4019V39.1475H124.767H144.308V31.4019H124.767V23.4304H138.785V15.6848H124.767V7.74559H144.308V0H124.767H117.016Z" fill="white"/>
<path d="M20.1217 25.0765C20.1217 28.4975 17.3441 31.2407 13.9528 31.2407C10.5292 31.2407 7.75154 28.4652 7.75154 25.0765V13.3936H0V25.2379C0 32.9189 6.23353 39.1476 13.9205 39.1476C21.6074 39.1476 27.8409 32.9189 27.8409 25.2379V13.3936H20.0894V25.0765H20.1217Z" fill="white"/>
<path d="M0 0V13.3934L13.9205 0H0Z" fill="white"/>
<path d="M27.8732 13.3934V0H13.9204L27.8732 13.3934Z" fill="white"/>
</svg>
