<svg width="149" height="56" viewBox="0 0 149 56" fill="none" xmlns="http://www.w3.org/2000/svg">
<path d="M5.49897 50.5882C5.10241 50.4561 4.62654 50.2976 4.01849 50.1655C3.43687 50.0335 3.01387 49.9014 2.72306 49.7693C2.43225 49.6372 2.30007 49.4259 2.30007 49.1617C2.30007 48.8975 2.43225 48.6598 2.67019 48.5013C2.90812 48.3428 3.30468 48.2635 3.80699 48.2635C4.54723 48.2635 5.26103 48.4749 6.00127 48.8975L6.55646 47.4974C6.18633 47.2597 5.76334 47.1012 5.28747 46.9691C4.8116 46.837 4.30929 46.7842 3.80699 46.7842C3.09318 46.7842 2.45869 46.8898 1.95638 47.1012C1.45408 47.3125 1.08396 47.6295 0.819585 47.9994C0.581651 48.3692 0.449465 48.7919 0.449465 49.2409C0.449465 49.7693 0.581651 50.192 0.87246 50.509C1.13683 50.826 1.48052 51.0637 1.87707 51.1958C2.27363 51.3279 2.7495 51.4864 3.35756 51.6185C3.75411 51.6977 4.07136 51.8034 4.28286 51.8562C4.52079 51.9355 4.70585 52.0411 4.83804 52.1468C4.99666 52.2789 5.04954 52.4374 5.04954 52.6223C5.04954 52.8865 4.91735 53.0978 4.67942 53.2299C4.44148 53.3884 4.04492 53.4677 3.51618 53.4677C3.04031 53.4677 2.59088 53.3884 2.11501 53.2299C1.63914 53.0714 1.24258 52.8865 0.898897 52.6223L0.264404 53.996C0.608088 54.2602 1.08396 54.4979 1.66558 54.6564C2.24719 54.8149 2.85525 54.9206 3.48974 54.9206C4.20355 54.9206 4.83804 54.8149 5.34034 54.6036C5.84265 54.3922 6.23921 54.0752 6.47714 53.7054C6.74152 53.3356 6.84726 52.9129 6.84726 52.4638C6.84726 51.9355 6.71508 51.5128 6.42427 51.1958C6.23921 50.9581 5.89553 50.7467 5.49897 50.5882Z" fill="white"/>
<path d="M27.6533 48.4223H30.1913V54.868H32.0155V48.4223H34.5534V46.9165H27.6533V48.4223Z" fill="white"/>
<path d="M61.2286 51.3017C61.2286 52.0414 61.0699 52.5697 60.7791 52.9131C60.4883 53.2566 60.0389 53.4415 59.4573 53.4415C58.2676 53.4415 57.686 52.7282 57.686 51.3017V46.9165H55.8618V51.3545C55.8618 52.5169 56.1791 53.4151 56.8136 54.0491C57.448 54.6831 58.3205 55.0001 59.4573 55.0001C60.5941 55.0001 61.4665 54.6831 62.101 54.0491C62.7355 53.4151 63.0527 52.5169 63.0527 51.3545V46.9165H61.2286V51.3017Z" fill="white"/>
<path d="M91.1025 47.4184C90.4415 47.1014 89.6748 46.9165 88.8289 46.9165H85.2334V54.8416H88.8289C89.7013 54.8416 90.4415 54.6831 91.1025 54.3397C91.7634 54.0227 92.2657 53.5471 92.6358 52.9396C93.0059 52.332 93.191 51.6451 93.191 50.8526C93.191 50.0601 93.0059 49.3733 92.6358 48.7657C92.2921 48.2109 91.7634 47.7354 91.1025 47.4184ZM90.6266 52.6754C90.1507 53.1245 89.5162 53.3358 88.7231 53.3358H87.0576V48.4223H88.7231C89.5162 48.4223 90.1507 48.6336 90.6266 49.0827C91.1025 49.5318 91.3404 50.113 91.3404 50.879C91.3404 51.6451 91.1025 52.2527 90.6266 52.6754Z" fill="white"/>
<path d="M116.773 46.9165H114.949V54.8416H116.773V46.9165Z" fill="white"/>
<path d="M145.087 47.3125C144.426 46.9691 143.686 46.7842 142.866 46.7842C142.047 46.7842 141.307 46.9691 140.646 47.3125C139.985 47.6559 139.456 48.1579 139.086 48.7919C138.716 49.4259 138.531 50.1127 138.531 50.9052C138.531 51.6713 138.716 52.3846 139.086 53.0186C139.456 53.6526 139.985 54.1281 140.646 54.4979C141.307 54.8414 142.047 55.0263 142.866 55.0263C143.686 55.0263 144.426 54.8414 145.087 54.4979C145.748 54.1545 146.25 53.6526 146.647 53.0186C147.017 52.3846 147.202 51.6977 147.202 50.9052C147.202 50.1391 147.017 49.4259 146.647 48.7919C146.277 48.1579 145.748 47.6824 145.087 47.3125ZM145.034 52.1997C144.823 52.5959 144.532 52.8865 144.135 53.0978C143.765 53.3092 143.342 53.4148 142.866 53.4148C142.391 53.4148 141.968 53.3092 141.597 53.0978C141.227 52.8865 140.91 52.5695 140.699 52.1997C140.487 51.8034 140.381 51.3807 140.381 50.8788C140.381 50.3769 140.487 49.9542 140.699 49.558C140.91 49.1617 141.201 48.8711 141.597 48.6598C141.968 48.4484 142.391 48.3428 142.866 48.3428C143.342 48.3428 143.765 48.4484 144.135 48.6598C144.506 48.8711 144.823 49.1881 145.034 49.558C145.246 49.9542 145.352 50.3769 145.352 50.8788C145.352 51.3807 145.246 51.8298 145.034 52.1997Z" fill="white"/>
<path d="M40.3167 0H33.9982H27.6533V22.7978V32.0437H33.9982V22.7978H40.3167C46.6088 22.7978 51.7112 17.6993 51.7112 11.4121C51.7376 5.09846 46.6352 0 40.3167 0ZM40.3167 16.4577H33.9982V6.31364H40.3167C43.1191 6.31364 45.3927 8.5855 45.3927 11.3857C45.3927 14.1859 43.1191 16.4577 40.3167 16.4577Z" fill="white"/>
<path d="M145.246 14.8463C146.224 13.3405 146.806 11.5442 146.806 9.58933C146.832 4.30595 142.523 0 137.209 0H124.916V12.8386V19.1787V32.0173H139.377C144.691 32.0173 148.974 27.7113 148.974 22.4279C149 19.3372 147.52 16.5898 145.246 14.8463ZM131.261 6.31364H137.209C139.007 6.31364 140.487 7.79298 140.487 9.58933C140.487 11.3064 139.139 12.7065 137.447 12.8386H131.234V6.31364H131.261ZM139.403 25.7301H131.261V19.1787H137.209C137.368 19.1787 137.553 19.1523 137.711 19.1523H139.403C141.201 19.1523 142.682 20.6316 142.682 22.4279C142.682 24.2507 141.201 25.7301 139.403 25.7301Z" fill="white"/>
<path d="M56.3906 0L62.9206 32.0437H69.2655L62.7356 0H56.3906Z" fill="white"/>
<path d="M82.6163 0L79.2323 16.5634L75.8483 0H69.5034L76.0334 32.0437H76.0863H82.4048H82.4312L88.9612 0H82.6163Z" fill="white"/>
<path d="M95.782 0V6.34006V12.8386V19.1787V25.7037V32.0437H102.127H118.121V25.7037H102.127V19.1787H113.601V12.8386H102.127V6.34006H118.121V0H102.127H95.782Z" fill="white"/>
<path d="M16.4704 20.5258C16.4704 23.326 14.1968 25.5714 11.4209 25.5714C8.61853 25.5714 6.34493 23.2996 6.34493 20.5258V10.9629H0V20.6579C0 26.9451 5.10238 32.0436 11.3944 32.0436C17.6865 32.0436 22.7889 26.9451 22.7889 20.6579V10.9629H16.4439V20.5258H16.4704Z" fill="white"/>
<path d="M0 0V10.963L11.3944 0H0Z" fill="white"/>
<path d="M22.8154 10.963V0H11.3945L22.8154 10.963Z" fill="white"/>
</svg>
